HIERARCHY
ROOT Hips
{
	OFFSET 0.000000 0.000000 0.000000 
	CHANNELS 6 Xposition Yposition Zposition Zrotation Yrotation Xrotation
	JOINT LeftUpLeg
	{
		OFFSET 1.363060 -1.794630 0.839290 
		CHANNELS 3 Zrotation Yrotation Xrotation
		JOINT LeftLeg
		{
			OFFSET 2.448110 -6.726130 0.000000 
			CHANNELS 3 Zrotation Yrotation Xrotation
			JOINT LeftFoot
			{
				OFFSET 2.562200 -7.039590 0.000000 
				CHANNELS 3 Zrotation Yrotation Xrotation
				JOINT LeftToeBase
				{
					OFFSET 0.157640 -0.433110 2.322550 
					CHANNELS 3 Zrotation Yrotation Xrotation
					End Site
					{
						OFFSET 0.000000 0.000000 0.000000 
					}
				}
			}
		}
	}
	JOINT RightUpLeg
	{
		OFFSET -1.305520 -1.794630 0.839290 
		CHANNELS 3 Zrotation Yrotation Xrotation
		JOINT RightLeg
		{
			OFFSET -2.542530 -6.985550 0.000000 
			CHANNELS 3 Zrotation Yrotation Xrotation
			JOINT RightFoot
			{
				OFFSET -2.568260 -7.056230 0.000000 
				CHANNELS 3 Zrotation Yrotation Xrotation
				JOINT RightToeBase
				{
					OFFSET -0.164730 -0.452590 2.363150 
					CHANNELS 3 Zrotation Yrotation Xrotation
					End Site
					{
						OFFSET 0.000000 0.000000 0.000000 
					}
				}
			}
		}
	}
	JOINT Spine
	{
		OFFSET 0.028270 2.035590 -0.193380 
		CHANNELS 3 Zrotation Yrotation Xrotation
		JOINT Spine1
		{
			OFFSET 0.056720 2.048850 -0.042750 
			CHANNELS 3 Zrotation Yrotation Xrotation
			JOINT Neck1
			{
				OFFSET -0.054170 1.746240 0.172020 
				CHANNELS 3 Zrotation Yrotation Xrotation
				JOINT Head
				{
					OFFSET 0.104070 1.761360 -0.123970 
					CHANNELS 3 Zrotation Yrotation Xrotation
					End Site
					{
						OFFSET 0.000000 0.000000 0.000000 
					}
				}
			}
			JOINT LeftArm
			{
				OFFSET 3.362410 1.200890 -0.311210 
				CHANNELS 3 Zrotation Yrotation Xrotation
				JOINT LeftForeArm
				{
					OFFSET 4.983000 -0.000000 -0.000000 
					CHANNELS 3 Zrotation Yrotation Xrotation
					JOINT LeftHand
					{
						OFFSET 3.483560 -0.000000 -0.000000 
						CHANNELS 3 Zrotation Yrotation Xrotation
						JOINT LeftHandIndex1
						{
							OFFSET 0.715260 -0.000000 -0.000000 
							CHANNELS 3 Zrotation Yrotation Xrotation
							End Site
							{
								OFFSET 0.000000 0.000000 0.000000 
							}
						}
					}
				}
			}
			JOINT RightArm
			{
				OFFSET -3.136600 1.374050 -0.404650 
				CHANNELS 3 Zrotation Yrotation Xrotation
				JOINT RightForeArm
				{
					OFFSET -5.241900 -0.000000 -0.000000 
					CHANNELS 3 Zrotation Yrotation Xrotation
					JOINT RightHand
					{
						OFFSET -3.444170 -0.000000 -0.000000 
						CHANNELS 3 Zrotation Yrotation Xrotation
						JOINT RightHandIndex1
						{
							OFFSET -0.622530 -0.000000 -0.000000 
							CHANNELS 3 Zrotation Yrotation Xrotation
							End Site
							{
								OFFSET 0.000000 0.000000 0.000000 
							}
						}
					}
				}
			}
		}
	}
}
MOTION
Frames: 13
Frame Time: 0.041667
-9.503895 16.331082 -12.622389 -3.464685 1.501628 10.519570 -33.746875 -23.410861 -16.196240 7.054849 6.820011 33.936474 2.101970 -0.343282 -23.721209 0.190800 2.813100 7.758800 43.701377 24.127132 -15.612453 -6.903300 -7.978574 38.160219 -2.556158 -5.631787 -26.608182 -2.159900 -9.191500 26.396300 6.623834 -1.295182 -3.615381 -1.215889 -0.996430 1.135928 4.332879 -4.168211 20.591996 -1.293900 -1.505000 11.248000 -90.844418 2.875927 3.610649 25.299205 -29.666541 -4.373098 1.220288 3.516136 11.902606 -7.125000 0.000000 0.000000 86.680942 3.260167 7.490539 -18.746480 22.357803 -2.578538 -1.978151 0.338829 -1.173280 7.125000 0.000000 0.000000 
-9.504167 16.330809 -12.624206 -3.464592 1.524050 10.455599 -33.750715 -23.431031 -16.143394 7.059577 6.825151 33.962840 2.104380 -0.331155 -23.736893 0.195200 2.845300 7.848400 43.702622 24.059615 -15.572247 -6.910068 -7.976003 38.166397 -2.567938 -5.469433 -26.657780 -2.176000 -9.223400 26.496600 6.567345 -1.284717 -3.455695 -1.233118 -0.981691 1.171380 4.349646 -4.164485 20.596817 -1.277900 -1.504100 11.250200 -90.828645 2.809913 3.681170 25.321475 -29.705865 -4.383438 1.215719 3.524855 11.877670 -7.125000 0.000000 0.000000 86.680842 3.338611 7.518702 -18.791760 22.436405 -2.592267 -1.970594 0.326320 -1.191461 7.125000 0.000000 0.000000 
-9.504349 16.331900 -12.626024 -3.454957 1.543955 10.416976 -33.764383 -23.444405 -16.098375 7.058598 6.819351 33.949643 2.102017 -0.373985 -23.723719 0.208500 2.939800 8.111300 43.688216 24.014467 -15.559346 -6.919640 -7.979700 38.191451 -2.574618 -5.308822 -26.680403 -2.228000 -9.325800 26.819700 6.544167 -1.265479 -3.360997 -1.233129 -0.967594 1.202211 4.376686 -4.114975 20.614613 -1.244000 -1.485800 11.265100 -90.823570 2.883795 3.893972 25.494412 -29.916818 -4.456003 1.191640 3.569529 11.719700 -7.125000 0.000000 0.000000 86.656387 3.368436 7.588643 -18.842636 22.516378 -2.609920 -1.971343 0.320519 -1.323971 7.125000 0.000000 0.000000 
-9.505076 16.332536 -12.628205 -3.435686 1.593290 10.446295 -33.768131 -23.479318 -16.132190 7.056066 6.815836 33.935657 2.095514 -0.434361 -23.689643 0.219200 3.013700 8.316900 43.659169 24.019266 -15.625489 -6.926280 -7.993590 38.232349 -2.568604 -5.307856 -26.650898 -2.246300 -9.361300 26.932200 6.499609 -1.256119 -3.340193 -1.252000 -0.961647 1.228995 4.359027 -4.080043 20.646127 -1.253300 -1.467900 11.282200 -90.793943 3.018259 4.061087 25.675872 -30.140660 -4.532397 1.176313 3.599492 11.602066 -7.125000 0.000000 0.000000 86.674307 3.341973 7.617606 -18.884735 22.579460 -2.625071 -1.975729 0.333060 -1.422858 7.125000 0.000000 0.000000 
-9.506349 16.331809 -12.630477 -3.368952 1.621444 10.488459 -33.827052 -23.465548 -16.168822 7.050512 6.809189 33.910196 2.091522 -0.459175 -23.664443 0.209500 2.946600 8.130100 43.577984 24.052844 -15.723695 -6.932306 -8.011729 38.278607 -2.556632 -5.394690 -26.597077 -2.189000 -9.249200 26.577900 6.442217 -1.255124 -3.372977 -1.239945 -0.963148 1.220225 4.348905 -4.037690 20.679191 -1.256400 -1.445400 11.293700 -90.773287 3.068693 4.056605 25.695639 -30.169161 -4.540803 1.180200 3.599502 11.607171 -7.125000 0.000000 0.000000 86.694199 3.303393 7.658343 -18.911905 22.622079 -2.633797 -1.973567 0.343246 -1.471829 7.125000 0.000000 0.000000 
-9.507439 16.331354 -12.632295 -3.295777 1.602595 10.450519 -33.927452 -23.373711 -16.111711 7.046927 6.799886 33.886393 2.094154 -0.446521 -23.673379 0.192600 2.826100 7.795000 43.501803 24.035838 -15.732940 -6.941295 -8.021886 38.318667 -2.550421 -5.449427 -26.569700 -2.140400 -9.152600 26.273900 6.413052 -1.248937 -3.355764 -1.196761 -0.962039 1.213629 4.379793 -3.974087 20.753173 -1.215900 -1.417000 11.359000 -90.787348 3.026511 3.973981 25.639391 -30.096499 -4.515458 1.181407 3.591393 11.654781 -7.125000 0.000000 0.000000 86.674148 3.320372 7.756865 -18.926665 22.644404 -2.640189 -1.975612 0.352347 -1.521952 7.125000 0.000000 0.000000 
-9.507439 16.331354 -12.634113 -3.276988 1.569949 10.374859 -33.980606 -23.311627 -16.018060 7.047228 6.795283 33.881914 2.096165 -0.412839 -23.678027 0.193900 2.835700 7.821700 43.493307 23.984821 -15.682532 -6.946196 -8.023116 38.344448 -2.525951 -5.554633 -26.424484 -2.041700 -8.952300 25.646300 6.394939 -1.236991 -3.259783 -1.185994 -0.953089 1.221821 4.395263 -3.935061 20.814528 -1.192600 -1.399300 11.415400 -90.807476 2.979729 3.912997 25.614038 -30.068511 -4.503751 1.174308 3.589881 11.628866 -7.125000 0.000000 0.000000 86.639586 3.380185 7.921514 -18.941912 22.669167 -2.648621 -1.984850 0.354689 -1.636471 7.125000 0.000000 0.000000 
-9.505985 16.329809 -12.637384 -3.295363 1.573018 10.328450 -33.970663 -23.354619 -15.977513 7.050173 6.798748 33.899530 2.092939 -0.403697 -23.656517 0.210900 2.956800 8.158400 43.514660 23.861708 -15.667915 -6.947527 -8.019204 38.345890 -2.500927 -5.561287 -26.258941 -1.946400 -8.753500 25.027200 6.393672 -1.241780 -3.187719 -1.209490 -0.950481 1.191681 4.365171 -3.910645 20.780209 -1.220500 -1.386200 11.371100 -90.831816 2.990981 3.902842 25.631965 -30.108670 -4.513192 1.178234 3.582282 11.505351 -7.125000 0.000000 0.000000 86.603145 3.434060 8.056375 -18.959664 22.701061 -2.654209 -1.983470 0.340736 -1.725002 7.125000 0.000000 0.000000 
-9.503895 16.329537 -12.640747 -3.354287 1.609780 10.313834 -33.901057 -23.436262 -15.993908 7.055340 6.808865 33.932876 2.089453 -0.396698 -23.638656 0.223600 3.044200 8.401700 43.568678 23.762559 -15.659587 -6.947757 -8.012465 38.324556 -2.521439 -5.373326 -26.365008 -2.009900 -8.886600 25.441300 6.421312 -1.254480 -3.168753 -1.248675 -0.954537 1.159888 4.333425 -3.864797 20.754960 -1.246100 -1.364700 11.338400 -90.878016 3.039391 3.869957 25.685880 -30.189100 -4.535655 1.178041 3.565643 11.466316 -7.125000 0.000000 0.000000 86.577845 3.469294 8.069253 -18.973694 22.725512 -2.656004 -1.975297 0.330082 -1.712564 7.125000 0.000000 0.000000 
-9.503259 16.331172 -12.642474 -3.417347 1.594751 10.289456 -33.845953 -23.425613 -16.000956 7.059368 6.817831 33.960283 2.091410 -0.298483 -23.641579 0.202600 2.898600 7.996600 43.636998 23.799890 -15.605869 -6.946538 -8.007243 38.312292 -2.543024 -5.270797 -26.489472 -2.069300 -9.009000 25.823500 6.453460 -1.231283 -3.165071 -1.266885 -0.943359 1.138353 4.342217 -3.819495 20.778329 -1.228200 -1.346400 11.353900 -90.933422 3.097946 3.838274 25.747201 -30.266314 -4.558267 1.163588 3.554737 11.494583 -7.125000 0.000000 0.000000 86.556345 3.463550 8.049679 -18.981898 22.738978 -2.656105 -1.965847 0.340177 -1.682028 7.125000 0.000000 0.000000 
-9.504804 16.331536 -12.645291 -3.451130 1.520804 10.286797 -33.820260 -23.354010 -16.052393 7.059886 6.823074 33.970244 2.090739 -0.186629 -23.624931 0.170700 2.661200 7.336900 43.670182 23.837547 -15.620180 -6.946005 -8.009796 38.325829 -2.516686 -5.290816 -26.322690 -1.987800 -8.840600 25.298100 6.478563 -1.179013 -3.155373 -1.252803 -0.917509 1.112347 4.364920 -3.827056 20.767559 -1.202900 -1.353900 11.332800 -90.963867 3.127342 3.871341 25.752421 -30.272958 -4.559212 1.166384 3.542907 11.479565 -7.125000 0.000000 0.000000 86.521352 3.449355 8.107529 -18.993972 22.763531 -2.659606 -1.960277 0.345810 -1.740362 7.125000 0.000000 0.000000 
-9.506258 16.331627 -12.648836 -3.448987 1.445559 10.277710 -33.825819 -23.302205 -16.071659 7.059991 6.823429 33.970470 2.087179 -0.162791 -23.599315 0.171700 2.669700 7.360400 43.649708 23.781771 -15.672578 -6.951414 -8.013805 38.343948 -2.493403 -5.167653 -26.157747 -1.960300 -8.782900 25.118400 6.477667 -1.131806 -3.089036 -1.229240 -0.890520 1.108704 4.375955 -3.856292 20.745052 -1.188900 -1.372400 11.303600 -90.989904 3.092850 3.882710 25.725441 -30.249997 -4.551895 1.178075 3.552599 11.525058 -7.125000 0.000000 0.000000 86.472005 3.442858 8.202244 -19.039787 22.837619 -2.675674 -1.959845 0.340696 -1.801594 7.125000 0.000000 0.000000 
-9.505894 16.332627 -12.651017 -3.397908 1.372409 10.244744 -33.897120 -23.292531 -16.006658 7.061108 6.823866 33.982263 2.090865 -0.132142 -23.618091 0.188100 2.793400 7.704100 43.574412 23.712363 -15.690282 -6.959966 -8.015179 38.357785 -2.486605 -5.012214 -26.094992 -1.991100 -8.847500 25.319500 6.444663 -1.097564 -2.998809 -1.210074 -0.869205 1.126227 4.354665 -3.850308 20.733280 -1.202600 -1.373200 11.294500 -91.017032 3.021855 3.864311 25.712861 -30.250130 -4.552790 1.174664 3.587177 11.561741 -7.125000 0.000000 0.000000 86.434025 3.481507 8.169360 -19.065471 22.878905 -2.682099 -1.953380 0.353209 -1.648580 7.125000 0.000000 0.000000 
